<?xml version="1.0" standalone="no"?>
<!DOCTYPE svg PUBLIC "-//W3C//DTD SVG 20010904//EN"
 "http://www.w3.org/TR/2001/REC-SVG-20010904/DTD/svg10.dtd">
<svg version="1.0" xmlns="http://www.w3.org/2000/svg"
 width="700.000000pt" height="700.000000pt" viewBox="0 0 700.000000 700.000000"
 preserveAspectRatio="xMidYMid meet">
<metadata>
Created by potrace 1.14, written by Peter Selinger 2001-2017
</metadata>
<g transform="translate(0.000000,700.000000) scale(0.100000,-0.100000)"
fill="#000000" stroke="none">
<path d="M3648 5995 c-2 -1 -46 -5 -98 -9 -52 -3 -120 -10 -150 -15 -30 -6
-68 -12 -85 -15 -122 -18 -301 -69 -452 -127 -504 -196 -870 -554 -1007 -984
-51 -161 -61 -236 -60 -445 0 -179 2 -203 27 -295 105 -391 380 -631 933 -814
156 -52 192 -62 579 -161 292 -75 440 -117 520 -150 270 -109 383 -186 446
-302 33 -60 34 -67 34 -168 0 -115 -15 -174 -67 -266 -58 -103 -186 -208 -344
-280 -41 -18 -75 -33 -77 -33 -1 1 -27 -6 -58 -15 -31 -9 -66 -19 -78 -21 -13
-2 -30 -7 -39 -9 -72 -23 -379 -29 -487 -10 -413 74 -660 304 -679 634 -3 41
-5 78 -5 81 -1 3 -228 6 -505 6 l-504 1 -5 -42 c-5 -45 0 -286 6 -326 37 -222
111 -413 218 -565 55 -78 248 -266 330 -322 261 -178 600 -294 969 -329 157
-16 751 -7 780 11 3 2 33 7 65 10 243 29 631 174 853 319 127 83 305 238 382
333 158 194 257 412 295 648 15 88 17 322 5 400 -15 89 -21 119 -36 180 -86
347 -390 649 -824 820 -52 20 -104 41 -115 46 -32 13 -211 66 -336 98 -121 31
-134 35 -211 51 -140 28 -428 104 -518 135 -101 36 -226 94 -284 134 -62 42
-127 116 -158 180 -28 56 -33 78 -35 146 -2 101 8 152 52 240 52 108 149 202
270 262 67 34 186 78 231 87 129 23 172 28 269 30 203 3 400 -45 552 -135 156
-94 263 -272 263 -438 l0 -37 493 1 c270 1 497 2 503 3 12 2 11 245 -1 317
-44 263 -153 473 -345 666 -235 236 -570 392 -975 454 -93 15 -525 31 -537 20z"/>
</g>
</svg>
