<?xml version="1.0" encoding="utf-8"?>
<!-- Generator: Adobe Illustrator 25.2.0, SVG Export Plug-In . SVG Version: 6.00 Build 0)  -->
<svg version="1.1" id="Слой_1" xmlns="http://www.w3.org/2000/svg" xmlns:xlink="http://www.w3.org/1999/xlink" x="0px" y="0px"
	 viewBox="0 0 2000 2000" enable-background="new 0 0 2000 2000" xml:space="preserve">
<g>
	<path fill="#33739F" d="M1236.46,1875.5c-112.95,0-197.4-32.21-251.02-95.74c-26.66-31.56-46.85-70.99-60.03-117.18
		c-12.88-45.14-19.41-98.06-19.41-157.28V784.5H782v-276h124v-384h302v1383.17c0,27.39,5,48.12,14.88,61.6
		c8.59,11.76,20.83,17.23,38.51,17.23H1408v289H1236.46z"/>
	<path fill="#33739F" d="M1186.5,146v1361.67c0,32.18,6.33,56.96,19.03,74.3c12.7,17.38,31.32,26.03,55.86,26.03h125.11v246h-150.04
		c-106.81,0-185.01-29.37-234.59-88.11c-49.6-58.74-74.38-145.62-74.38-260.59V763h-124V530h124V146H1186.5 M1229.5,103h-43h-259
		h-43v43v341h-81h-43v43v233v43h43h81v699.3c0,61.22,6.81,116.12,20.24,163.18c14.02,49.14,35.65,91.24,64.29,125.15
		c29.46,34.91,67.68,61.36,113.56,78.59c43.77,16.44,95.54,24.77,153.87,24.77h150.04h43v-43v-246v-43h-43h-125.11
		c-13.85,0-18.17-4.34-21.14-8.4c-4.91-6.71-10.75-20.62-10.75-48.93V146V103L1229.5,103z"/>
</g>
<g>
	<circle fill="#4DAFF0" cx="392.5" cy="622.5" r="282.5"/>
</g>
<g>
	<circle fill="#4DAFF0" cx="1608.5" cy="622.5" r="282.5"/>
</g>
</svg>
